REM DIRINDEX 1\2,1\3,1\4,1\5
REM DIRNAME folder01,folder02,folder03,folder04,folder05
TITLE ""
FILE "1800_080.mp3" MP3
  TRACK 01 AUDIO
    TITLE "2:cjc044_2081"
    INDEX 01 00:00:00
  TRACK 02 AUDIO
    TITLE "0:"
    INDEX 01 00:01:22
  TRACK 03 AUDIO
    TITLE "3:cjc044_2082"
    INDEX 01 00:02:04
  TRACK 04 AUDIO
    TITLE "0:"
    INDEX 01 00:03:33
  TRACK 05 AUDIO
    TITLE "4:cjc044_2083"
    INDEX 01 00:04:15
  TRACK 06 AUDIO
    TITLE "0:"
    INDEX 01 00:05:44
  TRACK 07 AUDIO
    TITLE "5:cjc044_2084"
    INDEX 01 00:06:18
  TRACK 08 AUDIO
    TITLE "0:"
    INDEX 01 00:09:63
  TRACK 09 AUDIO
    TITLE "2:cjc044_2085"
    INDEX 01 00:11:48
  TRACK 10 AUDIO
    TITLE "0:"
    INDEX 01 00:12:58
  TRACK 11 AUDIO
    TITLE "3:cjc044_2086"
    INDEX 01 00:13:41
  TRACK 12 AUDIO
    TITLE "0:"
    INDEX 01 00:14:43
  TRACK 13 AUDIO
    TITLE "4:cjc044_2087"
    INDEX 01 00:15:27
  TRACK 14 AUDIO
    TITLE "0:"
    INDEX 01 00:16:34
  TRACK 15 AUDIO
    TITLE "5:cjc044_2088"
    INDEX 01 00:17:04
  TRACK 16 AUDIO
    TITLE "0:"
    INDEX 01 00:19:44
  TRACK 17 AUDIO
    TITLE "2:cjc044_2089"
    INDEX 01 00:21:31
  TRACK 18 AUDIO
    TITLE "0:"
    INDEX 01 00:22:48
  TRACK 19 AUDIO
    TITLE "3:cjc044_2090"
    INDEX 01 00:23:32
  TRACK 20 AUDIO
    TITLE "0:"
    INDEX 01 00:24:25
  TRACK 21 AUDIO
    TITLE "4:cjc044_2091"
    INDEX 01 00:25:11
  TRACK 22 AUDIO
    TITLE "0:"
    INDEX 01 00:26:26
  TRACK 23 AUDIO
    TITLE "5:cjc044_2092"
    INDEX 01 00:27:02
  TRACK 24 AUDIO
    TITLE "0:"
    INDEX 01 00:30:32
  TRACK 25 AUDIO
    TITLE "2:cjc044_2093"
    INDEX 01 00:32:17
  TRACK 26 AUDIO
    TITLE "0:"
    INDEX 01 00:33:36
  TRACK 27 AUDIO
    TITLE "3:cjc044_2094"
    INDEX 01 00:34:22
  TRACK 28 AUDIO
    TITLE "0:"
    INDEX 01 00:35:17
  TRACK 29 AUDIO
    TITLE "4:cjc044_2095"
    INDEX 01 00:36:01
  TRACK 30 AUDIO
    TITLE "0:"
    INDEX 01 00:37:18
  TRACK 31 AUDIO
    TITLE "5:cjc044_2096"
    INDEX 01 00:37:67
  TRACK 32 AUDIO
    TITLE "0:"
    INDEX 01 00:41:73
  TRACK 33 AUDIO
    TITLE "2:cjc044_2097"
    INDEX 01 00:43:58
  TRACK 34 AUDIO
    TITLE "0:"
    INDEX 01 00:45:06
  TRACK 35 AUDIO
    TITLE "3:cjc044_2098"
    INDEX 01 00:45:63
  TRACK 36 AUDIO
    TITLE "0:"
    INDEX 01 00:47:01
  TRACK 37 AUDIO
    TITLE "4:cjc044_2099"
    INDEX 01 00:47:62
  TRACK 38 AUDIO
    TITLE "0:"
    INDEX 01 00:49:06
  TRACK 39 AUDIO
    TITLE "5:cjc044_2100"
    INDEX 01 00:49:55
  TRACK 40 AUDIO
    TITLE "0:"
    INDEX 01 00:53:43
  TRACK 41 AUDIO
    TITLE "2:cjc044_2101"
    INDEX 01 00:55:32
  TRACK 42 AUDIO
    TITLE "0:"
    INDEX 01 00:56:41
  TRACK 43 AUDIO
    TITLE "3:cjc044_2102"
    INDEX 01 00:57:29
  TRACK 44 AUDIO
    TITLE "0:"
    INDEX 01 00:59:18
  TRACK 45 AUDIO
    TITLE "4:cjc044_2103"
    INDEX 01 01:00:04
  TRACK 46 AUDIO
    TITLE "0:"
    INDEX 01 01:01:17
  TRACK 47 AUDIO
    TITLE "5:cjc044_2104"
    INDEX 01 01:01:64
  TRACK 48 AUDIO
    TITLE "0:"
    INDEX 01 01:04:19
  TRACK 49 AUDIO
    TITLE "2:cjc044_2105"
    INDEX 01 01:06:10
  TRACK 50 AUDIO
    TITLE "0:"
    INDEX 01 01:07:41
  TRACK 51 AUDIO
    TITLE "3:cjc044_2106"
    INDEX 01 01:08:27
  TRACK 52 AUDIO
    TITLE "0:"
    INDEX 01 01:09:38
  TRACK 53 AUDIO
    TITLE "4:cjc044_2107"
    INDEX 01 01:10:20
  TRACK 54 AUDIO
    TITLE "0:"
    INDEX 01 01:11:51
  TRACK 55 AUDIO
    TITLE "5:cjc044_2108"
    INDEX 01 01:12:21
  TRACK 56 AUDIO
    TITLE "0:"
    INDEX 01 01:15:54
  TRACK 57 AUDIO
    TITLE "2:cjc044_2109"
    INDEX 01 01:17:41
  TRACK 58 AUDIO
    TITLE "0:"
    INDEX 01 01:18:56
  TRACK 59 AUDIO
    TITLE "3:cjc044_2110"
    INDEX 01 01:19:44
  TRACK 60 AUDIO
    TITLE "0:"
    INDEX 01 01:20:69
  TRACK 61 AUDIO
    TITLE "4:cjc044_2111"
    INDEX 01 01:21:49
  TRACK 62 AUDIO
    TITLE "0:"
    INDEX 01 01:22:64
  TRACK 63 AUDIO
    TITLE "5:cjc044_2112"
    INDEX 01 01:23:36
  TRACK 64 AUDIO
    TITLE "0:"
    INDEX 01 01:26:56
